PathFileType	4	(X/Y/Z)	Gait_latera_markers.trc
DataRate	CameraRate	NumFrames	NumMarkers	Units	OrigDataRate	OrigDataStartFrame	OrigNumFrames
100	100	10	38	m	100	1	86
Frame#	Time	RASI			RPSI			LPSI			LASI			RTROCH			RTHI			RTHI2			RTHI3			RTHI4			RKNE			RKNEM			RTIB			RTIB2			RTIB3			RTIB4			RANK			RANKM			RHEE			RTOE			RTOEL			RTOEM			LTROCH			LTHI			LTHI2			LTHI3			LTHI4			LKNE			LKNEM			LTIB			LTIB2			LTIB3			LTIB4			LANK			LANKM			LHEE			LTOE			LTOEL			LTOEM
		X1	Y1	Z1	X2	Y2	Z2	X3	Y3	Z3	X4	Y4	Z4	X5	Y5	Z5	X6	Y6	Z6	X7	Y7	Z7	X8	Y8	Z8	X9	Y9	Z9	X10	Y10	Z10	X11	Y11	Z11	X12	Y12	Z12	X13	Y13	Z13	X14	Y14	Z14	X15	Y15	Z15	X16	Y16	Z16	X17	Y17	Z17	X18	Y18	Z18	X19	Y19	Z19	X20	Y20	Z20	X21	Y21	Z21	X22	Y22	Z22	X23	Y23	Z23	X24	Y24	Z24	X25	Y25	Z25	X26	Y26	Z26	X27	Y27	Z27	X28	Y28	Z28	X29	Y29	Z29	X30	Y30	Z30	X31	Y31	Z31	X32	Y32	Z32	X33	Y33	Z33	X34	Y34	Z34	X35	Y35	Z35	X36	Y36	Z36	X37	Y37	Z37	X38	Y38	Z38

1	0.000000	-0.332416	0.944968	-0.918627	-0.248692	0.986346	-1.098456	-0.153358	0.970033	-1.082693	-0.108338	0.945912	-0.891479	-0.384133	0.874813	-1.006981	-0.389409	0.768815	-1.048871	-0.384449	0.758655	-0.983262	-0.372989	0.677322	-0.990844	-0.376828	0.681510	-1.054069	-0.339416	0.532855	-1.087279	-0.227067	0.536630	-1.070133	-0.350580	0.410294	-1.158302	-0.330427	0.395155	-1.100282	-0.323771	0.310391	-1.124278	-0.346127	0.332696	-1.183424	-0.282215	0.120746	-1.242803	-0.217885	0.119287	-1.199432	-0.232199	0.068215	-1.299668	-0.312283	0.054744	-1.076697	-0.355733	0.042750	-1.143156	-0.254609	0.031621	-1.081667	-0.046461	0.872390	-0.960035	-0.039049	0.671006	-0.886260	-0.053787	0.690998	-0.827563	-0.066056	0.610712	-0.806601	-0.051935	0.585502	-0.863946	-0.077254	0.518370	-0.813693	-0.186458	0.542395	-0.798524	-0.068823	0.305887	-0.755095	-0.069500	0.343131	-0.701133	-0.078773	0.264204	-0.660463	-0.078839	0.232713	-0.715422	-0.096633	0.117158	-0.632927	-0.155932	0.169809	-0.600168	-0.161304	0.063060	-0.642972	-0.067015	0.176094	-0.460393	-0.031591	0.124420	-0.496942	-0.121829	0.171280	-0.459683
2	0.010000	-0.334264	0.941791	-0.908640	-0.246543	0.983473	-1.085641	-0.152006	0.967930	-1.069901	-0.109079	0.943454	-0.878264	-0.383948	0.873609	-0.996440	-0.389309	0.768255	-1.039119	-0.384350	0.757488	-0.973357	-0.374717	0.675626	-0.982491	-0.376915	0.680825	-1.044838	-0.339614	0.532510	-1.079190	-0.227327	0.535875	-1.061141	-0.350571	0.410974	-1.151977	-0.330564	0.394806	-1.094212	-0.324158	0.310656	-1.119896	-0.345803	0.333297	-1.178442	-0.282336	0.122769	-1.241405	-0.218023	0.120730	-1.197827	-0.232350	0.070943	-1.298819	-0.312258	0.054304	-1.076552	-0.355710	0.042774	-1.143049	-0.254467	0.031825	-1.081393	-0.046531	0.869810	-0.946069	-0.039589	0.669287	-0.871810	-0.055423	0.689242	-0.814250	-0.068384	0.610239	-0.792038	-0.053593	0.584784	-0.849429	-0.078039	0.516981	-0.800433	-0.186977	0.540205	-0.785819	-0.069900	0.304261	-0.739361	-0.068392	0.342525	-0.686366	-0.078703	0.264699	-0.644561	-0.079775	0.232210	-0.699016	-0.097290	0.117475	-0.614168	-0.155692	0.171809	-0.582174	-0.162886	0.064145	-0.622400	-0.066062	0.179855	-0.442995	-0.031518	0.126505	-0.478018	-0.121436	0.176301	-0.442382
3	0.020000	-0.334755	0.940154	-0.897094	-0.245987	0.982536	-1.073973	-0.150969	0.965481	-1.056934	-0.109612	0.941456	-0.865139	-0.384619	0.872394	-0.986636	-0.389000	0.767618	-1.028989	-0.386981	0.756954	-0.965232	-0.375042	0.675260	-0.973078	-0.376899	0.680198	-1.035251	-0.339799	0.531962	-1.070552	-0.227631	0.535162	-1.051751	-0.350703	0.411729	-1.145240	-0.330917	0.394586	-1.087818	-0.324632	0.310972	-1.115195	-0.345542	0.334057	-1.172771	-0.282685	0.125104	-1.239926	-0.218399	0.122416	-1.196187	-0.232810	0.073997	-1.297881	-0.311468	0.052951	-1.076205	-0.355780	0.042768	-1.142888	-0.254275	0.032032	-1.081167	-0.044994	0.868538	-0.932337	-0.040519	0.668831	-0.855870	-0.057436	0.689329	-0.798833	-0.070491	0.610480	-0.775932	-0.054102	0.584999	-0.833107	-0.078578	0.516661	-0.785553	-0.186809	0.538771	-0.771749	-0.070418	0.303213	-0.724427	-0.069484	0.341963	-0.671523	-0.079344	0.263696	-0.629316	-0.080603	0.231319	-0.683811	-0.097885	0.116852	-0.598375	-0.156259	0.171278	-0.566731	-0.164727	0.065264	-0.607868	-0.066661	0.180660	-0.427790	-0.032082	0.127073	-0.462310	-0.122014	0.177136	-0.427112
4	0.030000	-0.334988	0.938678	-0.885261	-0.243970	0.979715	-1.060782	-0.149948	0.963660	-1.044080	-0.109905	0.939858	-0.851922	-0.383126	0.871468	-0.974430	-0.388733	0.767082	-1.018607	-0.387268	0.756174	-0.955092	-0.375964	0.673929	-0.963703	-0.376797	0.679557	-1.025354	-0.339747	0.531364	-1.061342	-0.227897	0.534403	-1.041992	-0.350824	0.412500	-1.138000	-0.331199	0.394445	-1.081104	-0.325060	0.311151	-1.109843	-0.346410	0.335424	-1.166651	-0.283275	0.127584	-1.238182	-0.218951	0.124475	-1.194293	-0.233401	0.077437	-1.296906	-0.311846	0.052427	-1.075588	-0.355775	0.042222	-1.142291	-0.252473	0.032020	-1.081590	-0.044450	0.867073	-0.919067	-0.041074	0.669074	-0.839004	-0.059694	0.689968	-0.782388	-0.070614	0.611977	-0.759688	-0.054292	0.585303	-0.815399	-0.078971	0.517201	-0.768757	-0.186196	0.538661	-0.756565	-0.070771	0.302259	-0.709337	-0.069177	0.340102	-0.655966	-0.080081	0.261795	-0.614721	-0.081204	0.229970	-0.669508	-0.098511	0.115147	-0.585366	-0.157834	0.168447	-0.553741	-0.163148	0.060534	-0.593891	-0.068663	0.178542	-0.414591	-0.033039	0.125958	-0.449594	-0.123945	0.174104	-0.413709
5	0.040000	-0.334797	0.939344	-0.871223	-0.242936	0.978104	-1.048098	-0.149000	0.962002	-1.031064	-0.110075	0.938676	-0.838743	-0.383822	0.870442	-0.964026	-0.387974	0.765760	-1.007604	-0.387686	0.754677	-0.944629	-0.376156	0.672968	-0.953452	-0.376686	0.679085	-1.015076	-0.339187	0.530729	-1.051618	-0.228219	0.533488	-1.031642	-0.351107	0.413300	-1.130243	-0.331146	0.392972	-1.073076	-0.325546	0.311476	-1.104053	-0.346361	0.337228	-1.160849	-0.284015	0.130283	-1.236187	-0.219560	0.126504	-1.192419	-0.234096	0.081294	-1.295749	-0.311551	0.051786	-1.075112	-0.356014	0.042310	-1.142020	-0.251949	0.031943	-1.082083	-0.043993	0.865860	-0.905868	-0.040911	0.669477	-0.821342	-0.061360	0.690969	-0.765468	-0.073502	0.612486	-0.741368	-0.054013	0.586035	-0.797024	-0.078631	0.517923	-0.750959	-0.185369	0.539405	-0.740205	-0.070464	0.301506	-0.694261	-0.070308	0.338112	-0.640089	-0.081006	0.259244	-0.600779	-0.081291	0.228374	-0.656058	-0.099035	0.112603	-0.574939	-0.159578	0.164045	-0.543054	-0.162731	0.056630	-0.584904	-0.071277	0.173864	-0.403269	-0.034601	0.122529	-0.439253	-0.125950	0.167680	-0.402594
6	0.050000	-0.335076	0.936087	-0.861013	-0.242122	0.976832	-1.035285	-0.148274	0.960621	-1.017849	-0.110092	0.937661	-0.825227	-0.383429	0.869576	-0.952256	-0.388040	0.766033	-0.996714	-0.387679	0.753738	-0.933590	-0.376379	0.672139	-0.942811	-0.376543	0.678483	-1.004313	-0.339388	0.530252	-1.041497	-0.228413	0.532835	-1.021013	-0.351339	0.414175	-1.121958	-0.331570	0.393081	-1.065426	-0.325956	0.311744	-1.097863	-0.346537	0.338321	-1.153897	-0.284781	0.133476	-1.234068	-0.219670	0.128754	-1.190167	-0.234879	0.085426	-1.294305	-0.311573	0.051363	-1.074823	-0.356153	0.042457	-1.141735	-0.251838	0.031899	-1.082065	-0.043596	0.864914	-0.892529	-0.040558	0.670994	-0.803343	-0.061266	0.693441	-0.748046	-0.074459	0.614270	-0.723495	-0.053518	0.587118	-0.778400	-0.078064	0.519076	-0.732732	-0.184338	0.540298	-0.723113	-0.069508	0.301558	-0.679963	-0.071947	0.336234	-0.624548	-0.082223	0.255904	-0.587575	-0.080835	0.226617	-0.643543	-0.099797	0.108943	-0.566743	-0.161434	0.158850	-0.534526	-0.162969	0.052650	-0.579093	-0.074111	0.166972	-0.393994	-0.036605	0.117143	-0.431037	-0.128701	0.159769	-0.393733
7	0.060000	-0.334849	0.935083	-0.848408	-0.241149	0.975549	-1.021920	-0.147414	0.959694	-1.004419	-0.111597	0.936964	-0.812333	-0.381529	0.868687	-0.939133	-0.387094	0.764623	-0.984714	-0.387574	0.752974	-0.922150	-0.376681	0.671523	-0.931867	-0.376297	0.677914	-0.993081	-0.339702	0.529850	-1.030946	-0.228671	0.532085	-1.009791	-0.351549	0.415095	-1.113152	-0.331018	0.392133	-1.056929	-0.326268	0.312160	-1.091285	-0.347035	0.340254	-1.146807	-0.285592	0.136827	-1.231504	-0.220345	0.131327	-1.187589	-0.235523	0.090163	-1.292568	-0.311601	0.050897	-1.074520	-0.356281	0.042606	-1.141384	-0.252041	0.032291	-1.081431	-0.045368	0.862684	-0.878569	-0.039690	0.671713	-0.785910	-0.061325	0.694922	-0.731383	-0.074715	0.616322	-0.705897	-0.052858	0.588255	-0.760027	-0.077406	0.520341	-0.714279	-0.183157	0.541199	-0.705762	-0.068527	0.300855	-0.665800	-0.073358	0.333431	-0.609419	-0.083530	0.252668	-0.575723	-0.080399	0.225441	-0.632928	-0.100719	0.104546	-0.560531	-0.163373	0.152969	-0.528263	-0.162948	0.047642	-0.575243	-0.077332	0.158806	-0.386690	-0.039054	0.110473	-0.424654	-0.131878	0.150757	-0.387027
8	0.070000	-0.334549	0.934110	-0.835492	-0.240378	0.974539	-1.008342	-0.146931	0.958198	-0.990430	-0.111006	0.936223	-0.797916	-0.382198	0.867980	-0.927736	-0.386617	0.764090	-0.972826	-0.387481	0.752138	-0.910429	-0.376675	0.670674	-0.920271	-0.375872	0.677273	-0.981448	-0.339786	0.529460	-1.019869	-0.228784	0.531306	-0.997990	-0.351681	0.416164	-1.103802	-0.330635	0.391700	-1.048081	-0.326566	0.312620	-1.084240	-0.347295	0.341737	-1.138963	-0.286225	0.140527	-1.228531	-0.221513	0.134366	-1.184737	-0.236111	0.095341	-1.290437	-0.311568	0.050423	-1.074068	-0.356366	0.042908	-1.140861	-0.252102	0.032142	-1.081372	-0.042810	0.863243	-0.864698	-0.038640	0.672332	-0.769030	-0.061395	0.695309	-0.715358	-0.074684	0.617916	-0.688652	-0.052255	0.589199	-0.742190	-0.076685	0.521436	-0.696003	-0.181875	0.541824	-0.688719	-0.066937	0.299983	-0.652294	-0.074648	0.330410	-0.595302	-0.085485	0.248364	-0.565000	-0.079716	0.223177	-0.622751	-0.101222	0.100298	-0.556232	-0.165291	0.146828	-0.523871	-0.164131	0.045665	-0.575148	-0.081240	0.150116	-0.380899	-0.041615	0.102477	-0.420626	-0.135492	0.141024	-0.382141
9	0.080000	-0.334095	0.933372	-0.822141	-0.239225	0.973510	-0.994110	-0.146213	0.957201	-0.976234	-0.110420	0.935743	-0.783335	-0.381472	0.867396	-0.915043	-0.386180	0.763680	-0.960690	-0.387196	0.751498	-0.898325	-0.376671	0.670058	-0.908399	-0.375983	0.677198	-0.970391	-0.339914	0.529121	-1.008326	-0.228780	0.530561	-0.985495	-0.351242	0.416936	-1.093812	-0.330735	0.391541	-1.038690	-0.326742	0.313241	-1.076857	-0.347296	0.343535	-1.130622	-0.286900	0.144727	-1.225258	-0.222176	0.137251	-1.181217	-0.236606	0.101012	-1.287943	-0.311545	0.049892	-1.073514	-0.356438	0.043299	-1.140228	-0.252079	0.032200	-1.081111	-0.042568	0.862530	-0.849810	-0.037547	0.672553	-0.752678	-0.060158	0.696080	-0.699192	-0.073649	0.618971	-0.671783	-0.051597	0.589638	-0.725105	-0.076270	0.521928	-0.678237	-0.180644	0.542225	-0.672173	-0.066280	0.297705	-0.639352	-0.075887	0.327206	-0.582531	-0.087113	0.244233	-0.555610	-0.079184	0.220991	-0.613743	-0.101786	0.097694	-0.552730	-0.167125	0.141430	-0.519755	-0.164188	0.045867	-0.574253	-0.085569	0.141133	-0.375187	-0.044011	0.096659	-0.416029	-0.139616	0.131411	-0.376848
10	0.090000	-0.333653	0.932597	-0.808487	-0.238169	0.972518	-0.979704	-0.144986	0.956622	-0.961797	-0.110258	0.935390	-0.768854	-0.380514	0.866658	-0.901801	-0.385011	0.763386	-0.948166	-0.386851	0.750903	-0.885907	-0.376449	0.669148	-0.895971	-0.375348	0.676967	-0.957771	-0.339913	0.528668	-0.996132	-0.228742	0.529724	-0.972161	-0.351340	0.418301	-1.083361	-0.330841	0.391439	-1.028735	-0.327095	0.314174	-1.068550	-0.347201	0.345250	-1.121636	-0.287391	0.149082	-1.221304	-0.222621	0.140441	-1.177222	-0.236861	0.107254	-1.284849	-0.311573	0.049482	-1.072877	-0.356448	0.043889	-1.139513	-0.251945	0.032347	-1.080809	-0.044332	0.860511	-0.834343	-0.036766	0.672221	-0.737076	-0.058591	0.696205	-0.683486	-0.072216	0.619218	-0.655461	-0.050900	0.589621	-0.709052	-0.076393	0.521718	-0.661440	-0.179405	0.542060	-0.656247	-0.066348	0.297599	-0.628946	-0.077469	0.324315	-0.570632	-0.088806	0.240665	-0.546584	-0.079198	0.219491	-0.604948	-0.103487	0.094328	-0.548033	-0.169504	0.137209	-0.515242	-0.164025	0.043543	-0.569663	-0.089226	0.133572	-0.369452	-0.046899	0.091516	-0.410980	-0.142568	0.122999	-0.371260
